<svg width="20" height="9" viewBox="0 0 20 9" fill="none" xmlns="http://www.w3.org/2000/svg">
<path d="M0.582386 6.50852V5.78409L3.77841 0.727273H4.30398V1.84943H3.94886L1.53409 5.67045V5.72727H5.83807V6.50852H0.582386ZM4.00568 8V6.28835V5.95099V0.727273H4.84375V8H4.00568ZM9.58363 8.09943C9.28533 8.0947 8.98704 8.03788 8.68874 7.92898C8.39045 7.82008 8.11819 7.6366 7.87198 7.37855C7.62577 7.11813 7.42809 6.76657 7.27894 6.32386C7.12979 5.87879 7.05522 5.32008 7.05522 4.64773C7.05522 4.00379 7.11559 3.43324 7.23633 2.93608C7.35707 2.43655 7.53226 2.01634 7.7619 1.67543C7.99154 1.33215 8.26853 1.07173 8.59286 0.894176C8.91957 0.716619 9.2877 0.627841 9.69727 0.627841C10.1045 0.627841 10.4667 0.709517 10.7839 0.872869C11.1035 1.03385 11.3639 1.25876 11.5652 1.54759C11.7664 1.83641 11.8966 2.16903 11.9558 2.54545H11.0893C11.0088 2.21875 10.8526 1.94768 10.6206 1.73224C10.3886 1.51681 10.0808 1.40909 9.69727 1.40909C9.13382 1.40909 8.68993 1.65412 8.36559 2.14418C8.04362 2.63423 7.88145 3.32197 7.87908 4.20739H7.9359C8.06848 4.00616 8.22591 3.83452 8.4082 3.69247C8.59286 3.54806 8.79646 3.43679 9.019 3.35866C9.24154 3.28054 9.4771 3.24148 9.72567 3.24148C10.1423 3.24148 10.5235 3.34564 10.8691 3.55398C11.2148 3.75994 11.4918 4.04522 11.7001 4.4098C11.9084 4.77202 12.0126 5.1875 12.0126 5.65625C12.0126 6.10606 11.912 6.51799 11.7108 6.89205C11.5095 7.26373 11.2266 7.55966 10.862 7.77983C10.4998 7.99763 10.0737 8.10417 9.58363 8.09943ZM9.58363 7.31818C9.88192 7.31818 10.1494 7.24361 10.3862 7.09446C10.6253 6.94531 10.8135 6.74527 10.9508 6.49432C11.0905 6.24337 11.1603 5.96402 11.1603 5.65625C11.1603 5.35559 11.0929 5.08215 10.9579 4.83594C10.8253 4.58736 10.6419 4.38968 10.4075 4.2429C10.1755 4.09612 9.91033 4.02273 9.61204 4.02273C9.38713 4.02273 9.17762 4.06771 8.98349 4.15767C8.78936 4.24527 8.6189 4.366 8.47212 4.51989C8.32771 4.67377 8.21407 4.85014 8.13121 5.04901C8.04835 5.2455 8.00692 5.45265 8.00692 5.67045C8.00692 5.95928 8.0744 6.22917 8.20934 6.48011C8.34665 6.73106 8.53368 6.93348 8.77042 7.08736C9.00953 7.24124 9.2806 7.31818 9.58363 7.31818ZM17.1165 6.63636V6.25284C17.1165 5.98769 17.1709 5.74503 17.2798 5.52486C17.3911 5.30232 17.5521 5.12476 17.7628 4.99219C17.9759 4.85724 18.2339 4.78977 18.5369 4.78977C18.8447 4.78977 19.1027 4.85724 19.3111 4.99219C19.5194 5.12476 19.6768 5.30232 19.7834 5.52486C19.8899 5.74503 19.9432 5.98769 19.9432 6.25284V6.63636C19.9432 6.90152 19.8887 7.14536 19.7798 7.3679C19.6733 7.58807 19.5147 7.76562 19.304 7.90057C19.0956 8.03314 18.84 8.09943 18.5369 8.09943C18.2292 8.09943 17.9699 8.03314 17.7592 7.90057C17.5485 7.76562 17.3887 7.58807 17.2798 7.3679C17.1709 7.14536 17.1165 6.90152 17.1165 6.63636ZM17.8409 6.25284V6.63636C17.8409 6.85653 17.893 7.05421 17.9972 7.2294C18.1013 7.40223 18.2813 7.48864 18.5369 7.48864C18.7855 7.48864 18.9607 7.40223 19.0625 7.2294C19.1667 7.05421 19.2188 6.85653 19.2188 6.63636V6.25284C19.2188 6.03267 19.169 5.83617 19.0696 5.66335C18.9702 5.48816 18.7926 5.40057 18.5369 5.40057C18.2884 5.40057 18.1096 5.48816 18.0007 5.66335C17.8942 5.83617 17.8409 6.03267 17.8409 6.25284ZM13.4943 2.47443V2.09091C13.4943 1.82576 13.5488 1.5831 13.6577 1.36293C13.7689 1.14039 13.9299 0.962831 14.1406 0.830256C14.3537 0.695312 14.6117 0.627841 14.9148 0.627841C15.2225 0.627841 15.4806 0.695312 15.6889 0.830256C15.8973 0.962831 16.0547 1.14039 16.1612 1.36293C16.2678 1.5831 16.321 1.82576 16.321 2.09091V2.47443C16.321 2.73958 16.2666 2.98343 16.1577 3.20597C16.0511 3.42614 15.8925 3.60369 15.6818 3.73864C15.4735 3.87121 15.2178 3.9375 14.9148 3.9375C14.607 3.9375 14.3478 3.87121 14.1371 3.73864C13.9264 3.60369 13.7666 3.42614 13.6577 3.20597C13.5488 2.98343 13.4943 2.73958 13.4943 2.47443ZM14.2188 2.09091V2.47443C14.2188 2.6946 14.2708 2.89228 14.375 3.06747C14.4792 3.24029 14.6591 3.3267 14.9148 3.3267C15.1634 3.3267 15.3385 3.24029 15.4403 3.06747C15.5445 2.89228 15.5966 2.6946 15.5966 2.47443V2.09091C15.5966 1.87074 15.5469 1.67424 15.4474 1.50142C15.348 1.32623 15.1705 1.23864 14.9148 1.23864C14.6662 1.23864 14.4875 1.32623 14.3786 1.50142C14.272 1.67424 14.2188 1.87074 14.2188 2.09091ZM13.7642 8L18.7642 0.727273H19.5739L14.5739 8H13.7642Z" fill="black"/>
</svg>
