<svg width="8" height="13" viewBox="0 0 8 13" fill="none" xmlns="http://www.w3.org/2000/svg">
<path d="M5.875 12V7M5.875 7L7 7.9375M5.875 7L4.75 7.9375M2.125 7V12M2.125 12L3.25 11.0625M2.125 12L1 11.0625" stroke="black" stroke-linecap="round" stroke-linejoin="round"/>
<path d="M1.29119 4.25426V3.89205L2.8892 1.36364H3.15199V1.92472H2.97443L1.76705 3.83523V3.86364H3.91903V4.25426H1.29119ZM3.00284 5V4.14418V3.9755V1.36364H3.42188V5H3.00284ZM7.13414 2.5C7.09508 2.38045 7.04359 2.27332 6.97967 2.17862C6.91693 2.08274 6.84177 2.00107 6.75417 1.93359C6.66776 1.86612 6.56951 1.81463 6.45943 1.77912C6.34934 1.74361 6.2286 1.72585 6.09721 1.72585C5.88178 1.72585 5.68587 1.78149 5.5095 1.89276C5.33313 2.00402 5.19286 2.16797 5.08869 2.38459C4.98452 2.60121 4.93244 2.86695 4.93244 3.18182C4.93244 3.49669 4.98511 3.76243 5.09047 3.97905C5.19582 4.19567 5.33845 4.35961 5.51838 4.47088C5.6983 4.58215 5.90072 4.63778 6.12562 4.63778C6.33395 4.63778 6.51743 4.59339 6.67605 4.50462C6.83585 4.41465 6.96014 4.288 7.04892 4.12464C7.13888 3.96011 7.18386 3.76657 7.18386 3.54403L7.3188 3.57244H6.22505V3.18182H7.61V3.57244C7.61 3.87192 7.54608 4.13234 7.41824 4.35369C7.29158 4.57505 7.11639 4.74669 6.89267 4.86861C6.67013 4.98935 6.41445 5.04972 6.12562 5.04972C5.80365 5.04972 5.52074 4.97396 5.2769 4.82244C5.03424 4.67093 4.84484 4.45549 4.70872 4.17614C4.57377 3.89678 4.5063 3.56534 4.5063 3.18182C4.5063 2.89418 4.54477 2.63553 4.62172 2.40589C4.69984 2.17507 4.80993 1.97857 4.95197 1.81641C5.09402 1.65424 5.2621 1.52995 5.45623 1.44354C5.65036 1.35713 5.86402 1.31392 6.09721 1.31392C6.28897 1.31392 6.46771 1.34292 6.63343 1.40092C6.80034 1.45774 6.94889 1.53883 7.0791 1.64418C7.21049 1.74834 7.31999 1.87322 7.40758 2.01882C7.49518 2.16323 7.55555 2.32363 7.58869 2.5H7.13414Z" fill="black"/>
</svg>
