<svg width="142" height="176" viewBox="0 0 142 176" fill="none" xmlns="http://www.w3.org/2000/svg">
<path opacity="0.59" d="M13.2351 5.44154C33.5911 -5.39508 64.1791 -8.78583 91.3621 -6.34577C104.946 -5.12644 117.649 -2.45426 127.768 1.45352C137.87 5.35468 145.305 10.4528 148.548 16.4761C156.403 63.0907 159.327 97.0235 158.894 121.264C158.461 145.541 154.662 160.014 149.158 167.779C146.416 171.647 143.261 173.839 139.888 174.77C136.51 175.702 132.862 175.383 129.12 174.136C121.619 171.636 113.844 165.445 107.366 158.469L107.105 158.187L106.765 158.368C101.702 161.063 97.3351 162.101 93.5411 161.851C89.7551 161.602 86.4921 160.068 83.6361 157.535C77.8941 152.443 73.8221 143.339 70.5861 132.663C67.3551 122.005 64.9881 109.893 62.5951 98.8517C60.2091 87.8446 57.7901 77.8633 54.4421 71.5746C51.0751 65.25 44.2121 59.271 36.5501 53.5463C32.7111 50.6781 28.6501 47.8586 24.7011 45.0836C20.7481 42.3058 16.9071 39.5716 13.4911 36.8642C10.0731 34.1557 7.09806 31.4863 4.87006 28.8415C2.63906 26.1934 1.18606 23.6038 0.762061 21.057C0.342061 18.5332 0.92106 15.997 2.86106 13.41C4.81406 10.8067 8.14805 8.14946 13.2351 5.44154Z" fill="url(#paint0_linear_231_1344)" stroke="black"/>
<defs>
<linearGradient id="paint0_linear_231_1344" x1="55.0671" y1="-17.3947" x2="153.905" y2="168.267" gradientUnits="userSpaceOnUse">
<stop stop-color="#0B1442"/>
<stop offset="0.557292" stop-color="#17234F" stop-opacity="0.442708"/>
<stop offset="1" stop-color="#141CE0" stop-opacity="0"/>
</linearGradient>
</defs>
</svg>
