<svg width="17" height="14" viewBox="0 0 17 14" fill="none" xmlns="http://www.w3.org/2000/svg">
<path d="M14.8333 2H12.3237L10.875 0.5H6.12499L4.67624 2H2.16666C1.74674 2 1.34401 2.15804 1.04708 2.43934C0.750143 2.72064 0.583328 3.10218 0.583328 3.5V12.5C0.583328 12.8978 0.750143 13.2794 1.04708 13.5607C1.34401 13.842 1.74674 14 2.16666 14H14.8333C15.2533 14 15.656 13.842 15.9529 13.5607C16.2498 13.2794 16.4167 12.8978 16.4167 12.5V3.5C16.4167 3.10218 16.2498 2.72064 15.9529 2.43934C15.656 2.15804 15.2533 2 14.8333 2ZM14.8333 12.5H2.16666V3.5H5.37291L6.82166 2H10.1783L11.6271 3.5H14.8333V12.5ZM8.49999 4.25C7.45018 4.25 6.44336 4.64509 5.70103 5.34835C4.9587 6.05161 4.54166 7.00544 4.54166 8C4.54166 8.99456 4.9587 9.94839 5.70103 10.6517C6.44336 11.3549 7.45018 11.75 8.49999 11.75C9.54981 11.75 10.5566 11.3549 11.299 10.6517C12.0413 9.94839 12.4583 8.99456 12.4583 8C12.4583 7.00544 12.0413 6.05161 11.299 5.34835C10.5566 4.64509 9.54981 4.25 8.49999 4.25ZM8.49999 10.25C7.87011 10.25 7.26601 10.0129 6.82062 9.59099C6.37522 9.16903 6.12499 8.59674 6.12499 8C6.12499 7.40326 6.37522 6.83097 6.82062 6.40901C7.26601 5.98705 7.87011 5.75 8.49999 5.75C9.12988 5.75 9.73397 5.98705 10.1794 6.40901C10.6248 6.83097 10.875 7.40326 10.875 8C10.875 8.59674 10.6248 9.16903 10.1794 9.59099C9.73397 10.0129 9.12988 10.25 8.49999 10.25Z" fill="black"/>
</svg>
