<svg width="12" height="10" viewBox="0 0 12 10" fill="none" xmlns="http://www.w3.org/2000/svg">
<path fill-rule="evenodd" clip-rule="evenodd" d="M5.99992 5.10388C5.81315 5.10388 5.63402 5.17538 5.50196 5.30264C5.36989 5.4299 5.29569 5.60251 5.29569 5.78249C5.29569 5.96246 5.36989 6.13507 5.50196 6.26233C5.63402 6.3896 5.81315 6.46109 5.99992 6.46109C6.18669 6.46109 6.36581 6.3896 6.49788 6.26233C6.62995 6.13507 6.70414 5.96246 6.70414 5.78249C6.70414 5.60251 6.62995 5.4299 6.49788 5.30264C6.36581 5.17538 6.18669 5.10388 5.99992 5.10388ZM4.45062 5.78249C4.45062 5.38654 4.61385 5.0068 4.9044 4.72682C5.19495 4.44684 5.58902 4.28955 5.99992 4.28955C6.41082 4.28955 6.80489 4.44684 7.09543 4.72682C7.38598 5.0068 7.54921 5.38654 7.54921 5.78249C7.54921 6.17844 7.38598 6.55817 7.09543 6.83815C6.80489 7.11813 6.41082 7.27542 5.99992 7.27542C5.58902 7.27542 5.19495 7.11813 4.9044 6.83815C4.61385 6.55817 4.45062 6.17844 4.45062 5.78249Z" fill="black"/>
<path fill-rule="evenodd" clip-rule="evenodd" d="M5.99993 2.93233C5.41499 2.9324 4.84321 3.09959 4.35688 3.41278C3.87054 3.72596 3.4915 4.17107 3.26766 4.69182C3.04382 5.21258 2.98525 5.7856 3.09935 6.33843C3.21344 6.89126 3.49509 7.39907 3.90866 7.79767C3.949 7.83525 3.98117 7.8802 4.00329 7.92988C4.02541 7.97957 4.03704 8.033 4.0375 8.08706C4.03796 8.14113 4.02724 8.19474 4.00597 8.24477C3.9847 8.29479 3.95331 8.34024 3.91361 8.37845C3.87392 8.41666 3.82673 8.44688 3.77479 8.46732C3.72286 8.48777 3.66721 8.49805 3.61111 8.49755C3.55501 8.49706 3.49957 8.4858 3.44803 8.46444C3.39648 8.44308 3.34988 8.41204 3.31092 8.37313C2.77909 7.86065 2.41691 7.2077 2.27018 6.49686C2.12345 5.78602 2.19876 5.04922 2.48659 4.37963C2.77442 3.71003 3.26183 3.13772 3.8872 2.73507C4.51257 2.33241 5.24781 2.11749 5.99993 2.11749C6.75205 2.11749 7.48729 2.33241 8.11266 2.73507C8.73803 3.13772 9.22544 3.71003 9.51327 4.37963C9.8011 5.04922 9.87641 5.78602 9.72968 6.49686C9.58295 7.2077 9.22077 7.86065 8.68894 8.37313C8.60884 8.44506 8.5029 8.48421 8.39344 8.48235C8.28397 8.48049 8.17953 8.43776 8.10211 8.36316C8.0247 8.28856 7.98035 8.18791 7.97842 8.08243C7.97649 7.97695 8.01712 7.87486 8.09176 7.79767C8.50557 7.39907 8.78739 6.89116 8.90158 6.33818C9.01577 5.78521 8.95719 5.21202 8.73326 4.69113C8.50934 4.17024 8.13011 3.72506 7.64357 3.41189C7.15703 3.09872 6.58503 2.93218 5.99993 2.93233Z" fill="black"/>
<path fill-rule="evenodd" clip-rule="evenodd" d="M6 0.815075C4.98046 0.81508 3.98381 1.10642 3.13609 1.65224C2.28837 2.19807 1.62766 2.97387 1.2375 3.88154C0.847335 4.78921 0.745251 5.78798 0.944152 6.75156C1.14305 7.71514 1.63401 8.60025 2.35493 9.29495C2.39645 9.33222 2.42974 9.37718 2.45284 9.42712C2.47593 9.47707 2.48835 9.53098 2.48935 9.58565C2.49035 9.64032 2.47991 9.69463 2.45866 9.74533C2.43741 9.79603 2.40578 9.84208 2.36566 9.88074C2.32553 9.91941 2.27774 9.94989 2.22513 9.97037C2.17251 9.99084 2.11616 10.0009 2.05943 9.99994C2.00269 9.99897 1.94674 9.98701 1.89491 9.96475C1.84308 9.9425 1.79643 9.91041 1.75775 9.87041C0.918524 9.06186 0.346971 8.03166 0.115371 6.91008C-0.116229 5.78851 0.00252714 4.62594 0.456621 3.5694C0.910714 2.51287 1.67975 1.60982 2.66647 0.974471C3.65318 0.339119 4.81327 0 6 0C7.18673 0 8.34682 0.339119 9.33353 0.974471C10.3203 1.60982 11.0893 2.51287 11.5434 3.5694C11.9975 4.62594 12.1162 5.78851 11.8846 6.91008C11.653 8.03166 11.0815 9.06186 10.2423 9.87041C10.1622 9.94233 10.0562 9.98148 9.94675 9.97962C9.83728 9.97776 9.73284 9.93503 9.65542 9.86043C9.57801 9.78583 9.53366 9.68519 9.53173 9.5797C9.5298 9.47422 9.57043 9.37213 9.64507 9.29495C10.366 8.60025 10.8569 7.71514 11.0558 6.75156C11.2548 5.78798 11.1527 4.78921 10.7625 3.88154C10.3723 2.97387 9.71163 2.19807 8.86391 1.65224C8.01619 1.10642 7.01954 0.81508 6 0.815075Z" fill="black"/>
</svg>
