<svg width="10" height="10" viewBox="0 0 10 10" fill="none" xmlns="http://www.w3.org/2000/svg">
<path d="M0.714354 6.00255C0.885371 6.00273 1.05065 6.06734 1.18016 6.18465C1.30968 6.30196 1.39482 6.46417 1.42014 6.64182L1.42871 6.75187V9.24893C1.42889 9.43851 1.36074 9.62113 1.23796 9.76008C1.11518 9.89904 0.94688 9.98403 0.766878 9.99797C0.586877 10.0119 0.408525 9.95376 0.267673 9.83522C0.126821 9.71668 0.0339109 9.54653 0.00761968 9.35898L0 9.24993V6.75287C0 6.55387 0.075262 6.36303 0.209229 6.22231C0.343197 6.0816 0.524895 6.00255 0.714354 6.00255ZM3.57177 4.0017C3.74279 4.00188 3.90807 4.06649 4.03758 4.1838C4.16709 4.30111 4.25224 4.46332 4.27755 4.64097L4.28612 4.75102V9.24893C4.2863 9.43851 4.21816 9.62113 4.09538 9.76008C3.9726 9.89904 3.80429 9.98403 3.62429 9.99797C3.44429 10.0119 3.26594 9.95376 3.12509 9.83522C2.98424 9.71668 2.89133 9.54653 2.86503 9.35898L2.85741 9.24993V4.75202C2.85741 4.55302 2.93268 4.36218 3.06664 4.22146C3.20061 4.08075 3.38231 4.0017 3.57177 4.0017ZM6.42918 2.00085C6.6002 2.00103 6.76548 2.06564 6.89499 2.18295C7.02451 2.30026 7.10965 2.46247 7.13497 2.64012L7.14258 2.75017V9.25393C7.14006 9.44143 7.07078 9.62114 6.9484 9.75766C6.82602 9.89419 6.65941 9.97763 6.48137 9.99156C6.30334 10.0055 6.12679 9.9489 5.9865 9.83293C5.84621 9.71696 5.75235 9.55001 5.7234 9.36498L5.71483 9.25493V2.75117C5.71483 2.55217 5.79009 2.36133 5.92406 2.22061C6.05803 2.0799 6.23973 2.00085 6.42918 2.00085ZM9.2866 0C9.45762 0.00017737 9.6229 0.0647905 9.75241 0.182098C9.88192 0.299406 9.96707 0.461622 9.99238 0.639272L10 0.749318V9.25393C9.99747 9.44143 9.9282 9.62114 9.80582 9.75766C9.68344 9.89419 9.51682 9.97763 9.33879 9.99156C9.16075 10.0055 8.98421 9.9489 8.84392 9.83293C8.70363 9.71696 8.60977 9.55001 8.58082 9.36498L8.57224 9.25493V0.750319C8.57224 0.551322 8.64751 0.360475 8.78148 0.219763C8.91544 0.0790511 9.09714 0 9.2866 0Z" fill="black"/>
</svg>
