<svg width="23" height="26" viewBox="0 0 23 26" fill="none" xmlns="http://www.w3.org/2000/svg">
<path d="M11.25 0C14.2337 0 17.0952 1.18526 19.205 3.29505C21.3147 5.40483 22.5 8.26631 22.5 11.25C22.5 15.9075 18.95 20.7875 12 26C11.7836 26.1623 11.5205 26.25 11.25 26.25C10.9795 26.25 10.7164 26.1623 10.5 26C3.55 20.7875 0 15.9075 0 11.25C0 8.26631 1.18526 5.40483 3.29505 3.29505C5.40483 1.18526 8.26631 0 11.25 0ZM11.25 2.5C8.92936 2.5 6.70376 3.42187 5.06282 5.06282C3.42187 6.70376 2.5 8.92936 2.5 11.25C2.5 14.6375 5.1475 18.545 10.56 22.8825L11.25 23.4275L11.94 22.8825C17.3525 18.545 20 14.6375 20 11.25C20 8.92936 19.0781 6.70376 17.4372 5.06282C15.7962 3.42187 13.5706 2.5 11.25 2.5ZM11.25 8.75C11.913 8.75 12.5489 9.01339 13.0178 9.48223C13.4866 9.95107 13.75 10.587 13.75 11.25C13.75 11.913 13.4866 12.5489 13.0178 13.0178C12.5489 13.4866 11.913 13.75 11.25 13.75C10.587 13.75 9.95107 13.4866 9.48223 13.0178C9.01339 12.5489 8.75 11.913 8.75 11.25C8.75 10.587 9.01339 9.95107 9.48223 9.48223C9.95107 9.01339 10.587 8.75 11.25 8.75Z" fill="black"/>
</svg>
