<svg width="11" height="14" viewBox="0 0 11 14" fill="none" xmlns="http://www.w3.org/2000/svg">
<path d="M1.75 13.75C1.406 13.75 1.112 13.628 0.867004 13.383C0.622004 13.138 0.5 12.843 0.5 12.5V6.25C0.5 5.906 0.622996 5.612 0.867996 5.367C1.113 5.122 1.407 5 1.75 5H2.375V3.75C2.375 2.885 2.68 2.148 3.289 1.539C3.899 0.929001 4.636 0.625 5.5 0.625C6.365 0.625 7.102 0.930001 7.711 1.539C8.321 2.149 8.625 2.886 8.625 3.75V5H9.25C9.594 5 9.888 5.12298 10.133 5.36798C10.378 5.61298 10.5 5.907 10.5 6.25V12.5C10.5 12.844 10.378 13.138 10.133 13.383C9.888 13.628 9.593 13.75 9.25 13.75H1.75ZM5.5 10.625C5.844 10.625 6.138 10.503 6.383 10.258C6.628 10.013 6.75 9.718 6.75 9.375C6.75 9.031 6.628 8.737 6.383 8.492C6.138 8.247 5.843 8.125 5.5 8.125C5.156 8.125 4.862 8.24798 4.617 8.49298C4.372 8.73798 4.25 9.032 4.25 9.375C4.25 9.719 4.373 10.013 4.618 10.258C4.863 10.503 5.157 10.625 5.5 10.625ZM3.625 5H7.375V3.75C7.375 3.229 7.193 2.786 6.828 2.422C6.464 2.057 6.021 1.875 5.5 1.875C4.979 1.875 4.536 2.057 4.172 2.422C3.807 2.786 3.625 3.229 3.625 3.75V5Z" fill="white"/>
</svg>
