<svg width="30" height="30" viewBox="0 0 30 30" fill="none" xmlns="http://www.w3.org/2000/svg">
<path d="M26.21 23.06C26.1979 23.4914 26.0992 23.916 25.9197 24.3086C25.7403 24.7011 25.4838 25.0536 25.1655 25.3451C24.8472 25.6366 24.4736 25.8612 24.0668 26.0054C23.66 26.1497 23.2283 26.2108 22.7975 26.185C20.1062 26.2 17.415 26.185 14.7237 26.185C14.558 26.185 14.399 26.1191 14.2818 26.0019C14.1646 25.8847 14.0987 25.7257 14.0987 25.56C14.0987 25.3942 14.1646 25.2352 14.2818 25.118C14.399 25.0008 14.558 24.935 14.7237 24.935C17.4737 24.935 20.2237 24.975 22.9737 24.935C24.3575 24.915 24.96 23.875 24.96 22.6375V7.05871C24.9697 6.66529 24.859 6.2783 24.6427 5.94949C24.4265 5.62068 24.115 5.36572 23.75 5.21871C23.3184 5.10093 22.8694 5.06072 22.4237 5.09996H14.7237C14.558 5.09996 14.399 5.03411 14.2818 4.9169C14.1646 4.79969 14.0987 4.64072 14.0987 4.47496C14.0987 4.3092 14.1646 4.15023 14.2818 4.03301C14.399 3.9158 14.558 3.84996 14.7237 3.84996C17.5037 3.84996 20.305 3.74371 23.0825 3.84996C23.5078 3.86071 23.9268 3.95595 24.315 4.13014C24.7032 4.30432 25.0528 4.55396 25.3436 4.86454C25.6344 5.17513 25.8606 5.54044 26.0089 5.93923C26.1572 6.33802 26.2247 6.76233 26.2075 7.18746L26.21 23.06Z" fill="black"/>
<path d="M3.97 14.5787C3.86439 14.6811 3.80257 14.8205 3.7975 14.9675C3.7975 14.9862 3.7975 15.0025 3.79 15.0212C3.7825 15.04 3.79 15.055 3.7975 15.0725C3.8025 15.2199 3.86432 15.3596 3.97 15.4625L8.55625 20.0487C8.67413 20.1626 8.83201 20.2256 8.99588 20.2242C9.15975 20.2227 9.31651 20.157 9.43239 20.0411C9.54827 19.9252 9.614 19.7685 9.61542 19.6046C9.61685 19.4407 9.55385 19.2829 9.44 19.165L5.92125 15.645H19.3488C19.5145 15.645 19.6735 15.5791 19.7907 15.4619C19.9079 15.3447 19.9738 15.1858 19.9738 15.02C19.9738 14.8542 19.9079 14.6953 19.7907 14.578C19.6735 14.4608 19.5145 14.395 19.3488 14.395H5.92125L9.44 10.875C9.55385 10.7571 9.61685 10.5992 9.61542 10.4354C9.614 10.2715 9.54827 10.1147 9.43239 9.99885C9.31651 9.88297 9.15975 9.81724 8.99588 9.81582C8.83201 9.8144 8.67413 9.87739 8.55625 9.99124L3.97 14.5787Z" fill="black"/>
</svg>
