<svg width="30" height="30" viewBox="0 0 30 30" fill="none" xmlns="http://www.w3.org/2000/svg">
<path d="M15 30C23.2843 30 30 23.2843 30 15C30 6.71573 23.2843 0 15 0C6.71573 0 0 6.71573 0 15C0 23.2843 6.71573 30 15 30Z" fill="#124A7D"/>
<path d="M12.1472 17.433L11.5832 18.97C11.5672 19.014 11.5602 19.064 11.5632 19.112C11.5662 19.16 11.5792 19.206 11.6002 19.242C11.6222 19.278 11.6512 19.304 11.6832 19.317C11.7162 19.329 11.7512 19.3279 11.7842 19.3119L12.9352 18.77C13.1182 18.683 13.2892 18.5459 13.4382 18.3659L17.6772 13.223C17.8322 13.036 17.9312 12.7729 17.9532 12.4929C17.9752 12.2119 17.9182 11.9369 17.7952 11.7279C17.6722 11.5189 17.4932 11.392 17.2962 11.377C17.1002 11.361 16.9032 11.458 16.7482 11.645L12.5092 16.7879C12.3602 16.9679 12.2372 17.188 12.1472 17.433Z" fill="white"/>
</svg>
