<svg width="26" height="26" viewBox="0 0 26 26" fill="none" xmlns="http://www.w3.org/2000/svg">
<path d="M9.5625 25.5L9.0625 21.5C8.79167 21.3958 8.53625 21.2708 8.29625 21.125C8.05625 20.9792 7.82208 20.8229 7.59375 20.6562L3.875 22.2187L0.4375 16.2812L3.65625 13.8437C3.63542 13.6979 3.625 13.5571 3.625 13.4212V12.5787C3.625 12.4429 3.63542 12.3021 3.65625 12.1562L0.4375 9.71875L3.875 3.78125L7.59375 5.34375C7.82292 5.17708 8.0625 5.02083 8.3125 4.875C8.5625 4.72917 8.8125 4.60417 9.0625 4.5L9.5625 0.5H16.4375L16.9375 4.5C17.2083 4.60417 17.4637 4.72917 17.7037 4.875C17.9437 5.02083 18.1779 5.17708 18.4062 5.34375L22.125 3.78125L25.5625 9.71875L22.3437 12.1562C22.3646 12.3021 22.375 12.4429 22.375 12.5787V13.4212C22.375 13.5571 22.3542 13.6979 22.3125 13.8437L25.5312 16.2812L22.0937 22.2187L18.4062 20.6562C18.1771 20.8229 17.9375 20.9792 17.6875 21.125C17.4375 21.2708 17.1875 21.3958 16.9375 21.5L16.4375 25.5H9.5625ZM13.0625 17.375C14.2708 17.375 15.3021 16.9479 16.1562 16.0937C17.0104 15.2396 17.4375 14.2083 17.4375 13C17.4375 11.7917 17.0104 10.7604 16.1562 9.90625C15.3021 9.05208 14.2708 8.625 13.0625 8.625C11.8333 8.625 10.7967 9.05208 9.9525 9.90625C9.10833 10.7604 8.68667 11.7917 8.6875 13C8.6875 14.2083 9.10917 15.2396 9.9525 16.0937C10.7958 16.9479 11.8325 17.375 13.0625 17.375ZM13.0625 14.875C12.5417 14.875 12.0988 14.6925 11.7337 14.3275C11.3687 13.9625 11.1867 13.52 11.1875 13C11.1875 12.4792 11.37 12.0362 11.735 11.6712C12.1 11.3062 12.5425 11.1242 13.0625 11.125C13.5833 11.125 14.0262 11.3075 14.3912 11.6725C14.7562 12.0375 14.9383 12.48 14.9375 13C14.9375 13.5208 14.755 13.9637 14.39 14.3287C14.025 14.6937 13.5825 14.8758 13.0625 14.875ZM11.75 23H14.2187L14.6562 19.6875C15.3021 19.5208 15.9012 19.2758 16.4537 18.9525C17.0062 18.6292 17.5112 18.2387 17.9687 17.7812L21.0625 19.0625L22.2812 16.9375L19.5937 14.9062C19.6979 14.6146 19.7708 14.3075 19.8125 13.985C19.8542 13.6625 19.875 13.3342 19.875 13C19.875 12.6667 19.8542 12.3387 19.8125 12.0162C19.7708 11.6937 19.6979 11.3862 19.5937 11.0937L22.2812 9.0625L21.0625 6.9375L17.9687 8.25C17.5104 7.77083 17.0054 7.37 16.4537 7.0475C15.9021 6.725 15.3029 6.48 14.6562 6.3125L14.25 3H11.7812L11.3437 6.3125C10.6979 6.47917 10.0992 6.72417 9.5475 7.0475C8.99583 7.37083 8.49042 7.76125 8.03125 8.21875L4.9375 6.9375L3.71875 9.0625L6.40625 11.0625C6.30208 11.375 6.22917 11.6875 6.1875 12C6.14583 12.3125 6.125 12.6458 6.125 13C6.125 13.3333 6.14583 13.6562 6.1875 13.9687C6.22917 14.2812 6.30208 14.5937 6.40625 14.9062L3.71875 16.9375L4.9375 19.0625L8.03125 17.75C8.48958 18.2292 8.995 18.6304 9.5475 18.9537C10.1 19.2771 10.6987 19.5217 11.3437 19.6875L11.75 23Z" fill="black"/>
</svg>
