<svg width="25" height="25" viewBox="0 0 25 25" fill="none" xmlns="http://www.w3.org/2000/svg">
<g clip-path="url(#clip0_210_1262)">
<path d="M12.5 25C19.4036 25 25 19.4036 25 12.5C25 5.59644 19.4036 0 12.5 0C5.59644 0 0 5.59644 0 12.5C0 19.4036 5.59644 25 12.5 25Z" fill="white"/>
<path d="M18.834 7H16.3244L14.8757 5.5H10.1257L8.67689 7H6.16731C5.74739 7 5.34466 7.15804 5.04773 7.43934C4.75079 7.72064 4.58398 8.10218 4.58398 8.5V17.5C4.58398 17.8978 4.75079 18.2794 5.04773 18.5607C5.34466 18.842 5.74739 19 6.16731 19H18.834C19.254 19 19.6567 18.842 19.9536 18.5607C20.2505 18.2794 20.4174 17.8978 20.4174 17.5V8.5C20.4174 8.10218 20.2505 7.72064 19.9536 7.43934C19.6567 7.15804 19.254 7 18.834 7ZM18.834 17.5H6.16731V8.5H9.37356L10.8224 7H14.179L15.6278 8.5H18.834V17.5ZM12.5007 9.25C11.4509 9.25 10.4441 9.64509 9.70168 10.3483C8.95935 11.0516 8.54231 12.0054 8.54231 13C8.54231 13.9946 8.95935 14.9484 9.70168 15.6517C10.4441 16.3549 11.4509 16.75 12.5007 16.75C13.5505 16.75 14.5573 16.3549 15.2997 15.6517C16.042 14.9484 16.459 13.9946 16.459 13C16.459 12.0054 16.042 11.0516 15.2997 10.3483C14.5573 9.64509 13.5505 9.25 12.5007 9.25ZM12.5007 15.25C11.8708 15.25 11.2667 15.0129 10.8213 14.591C10.3759 14.169 10.1257 13.5967 10.1257 13C10.1257 12.4033 10.3759 11.831 10.8213 11.409C11.2667 10.9871 11.8708 10.75 12.5007 10.75C13.1306 10.75 13.7347 10.9871 14.1801 11.409C14.6255 11.831 14.8757 12.4033 14.8757 13C14.8757 13.5967 14.6255 14.169 14.1801 14.591C13.7347 15.0129 13.1306 15.25 12.5007 15.25Z" fill="black"/>
</g>
<defs>
<clipPath id="clip0_210_1262">
<rect width="25" height="25" fill="white"/>
</clipPath>
</defs>
</svg>
