<svg width="20" height="9" viewBox="0 0 20 9" fill="none" xmlns="http://www.w3.org/2000/svg">
<path d="M0.582031 6.50838V5.78399L3.77808 0.727185H4.30408V1.84929H3.94904L1.53406 5.67039V5.72719H5.83807V6.50838H0.582031ZM4.00604 7.99989V6.28829V5.95089V0.727185H4.84406V7.99989H4.00604ZM9.58405 8.09929C9.28505 8.09459 8.98709 8.03779 8.68909 7.92889C8.39009 7.81999 8.11807 7.63648 7.87207 7.37848C7.62607 7.11798 7.42805 6.76649 7.27905 6.32379C7.13005 5.87869 7.05505 5.31999 7.05505 4.64759C7.05505 4.00369 7.11608 3.43309 7.23608 2.93599C7.35708 2.43649 7.53208 2.01619 7.76208 1.67529C7.99208 1.33199 8.26908 1.07159 8.59308 0.894086C8.92008 0.716486 9.28808 0.627686 9.69708 0.627686C10.1041 0.627686 10.4671 0.709386 10.7841 0.872786C11.1041 1.03379 11.3641 1.25869 11.5651 1.54749C11.7661 1.83629 11.8971 2.16889 11.9561 2.54539H11.0891C11.0091 2.21859 10.853 1.94759 10.621 1.73209C10.389 1.51669 10.0811 1.40899 9.69708 1.40899C9.13408 1.40899 8.69009 1.65399 8.36609 2.14409C8.04409 2.63409 7.88109 3.32189 7.87909 4.20729H7.93604C8.06804 4.00609 8.22608 3.83439 8.40808 3.69239C8.59308 3.54799 8.79604 3.43669 9.01904 3.35859C9.24204 3.28039 9.47707 3.24139 9.72607 3.24139C10.1421 3.24139 10.5231 3.34549 10.8691 3.55389C11.2151 3.75979 11.4921 4.04509 11.7001 4.40969C11.9081 4.77189 12.0131 5.18739 12.0131 5.65609C12.0131 6.10599 11.9121 6.51789 11.7111 6.89189C11.5101 7.26359 11.2271 7.55959 10.8621 7.77969C10.5001 7.99749 10.074 8.10409 9.58405 8.09929ZM9.58405 7.31808C9.88205 7.31808 10.149 7.24349 10.386 7.09439C10.625 6.94519 10.814 6.74519 10.951 6.49419C11.09 6.24329 11.16 5.96389 11.16 5.65609C11.16 5.35549 11.0931 5.08199 10.9581 4.83579C10.8251 4.58729 10.642 4.38959 10.407 4.24279C10.175 4.09599 9.91006 4.02259 9.61206 4.02259C9.38706 4.02259 9.17803 4.06759 8.98303 4.15759C8.78903 4.24519 8.61905 4.36589 8.47205 4.51979C8.32805 4.67369 8.21404 4.84999 8.13104 5.04889C8.04804 5.24539 8.00708 5.45259 8.00708 5.67039C8.00708 5.95919 8.07405 6.22909 8.20905 6.47999C8.34705 6.73099 8.53408 6.93339 8.77008 7.08729C9.01008 7.24109 9.28105 7.31808 9.58405 7.31808ZM17.1161 6.63629V6.25269C17.1161 5.98759 17.1711 5.74489 17.2801 5.52479C17.3911 5.30219 17.5521 5.12469 17.7631 4.99209C17.9761 4.85709 18.234 4.78969 18.537 4.78969C18.845 4.78969 19.103 4.85709 19.311 4.99209C19.519 5.12469 19.6771 5.30219 19.7831 5.52479C19.8901 5.74489 19.9431 5.98759 19.9431 6.25269V6.63629C19.9431 6.90139 19.8891 7.14529 19.7801 7.36779C19.6731 7.58799 19.5151 7.76549 19.3041 7.90049C19.0961 8.03299 18.84 8.09929 18.537 8.09929C18.229 8.09929 17.97 8.03299 17.759 7.90049C17.549 7.76549 17.3891 7.58799 17.2801 7.36779C17.1711 7.14529 17.1161 6.90139 17.1161 6.63629ZM17.8411 6.25269V6.63629C17.8411 6.85639 17.8931 7.05409 17.9971 7.22929C18.1011 7.40209 18.281 7.48849 18.537 7.48849C18.786 7.48849 18.9611 7.40209 19.0621 7.22929C19.1671 7.05409 19.2191 6.85639 19.2191 6.63629V6.25269C19.2191 6.03259 19.1691 5.83609 19.0701 5.66329C18.9701 5.48809 18.793 5.40049 18.537 5.40049C18.288 5.40049 18.11 5.48809 18.001 5.66329C17.894 5.83609 17.8411 6.03259 17.8411 6.25269ZM13.4941 2.47429V2.09079C13.4941 1.82569 13.5491 1.58299 13.6581 1.36279C13.7691 1.14029 13.9301 0.962686 14.1411 0.830186C14.3541 0.695186 14.612 0.627686 14.915 0.627686C15.223 0.627686 15.4811 0.695186 15.6891 0.830186C15.8971 0.962686 16.0551 1.14029 16.1611 1.36279C16.2681 1.58299 16.321 1.82569 16.321 2.09079V2.47429C16.321 2.73949 16.2671 2.98329 16.1581 3.20589C16.0511 3.42599 15.8931 3.60359 15.6821 3.73849C15.4731 3.87109 15.218 3.93739 14.915 3.93739C14.607 3.93739 14.3481 3.87109 14.1371 3.73849C13.9261 3.60359 13.7671 3.42599 13.6581 3.20589C13.5491 2.98329 13.4941 2.73949 13.4941 2.47429ZM14.2191 2.09079V2.47429C14.2191 2.69449 14.2711 2.89219 14.3751 3.06739C14.4791 3.24019 14.659 3.32659 14.915 3.32659C15.163 3.32659 15.3391 3.24019 15.4401 3.06739C15.5451 2.89219 15.597 2.69449 15.597 2.47429V2.09079C15.597 1.87059 15.5471 1.67409 15.4471 1.50129C15.3481 1.32609 15.17 1.23849 14.915 1.23849C14.666 1.23849 14.4871 1.32609 14.3791 1.50129C14.2721 1.67409 14.2191 1.87059 14.2191 2.09079ZM13.764 7.99989L18.764 0.727185H19.574L14.574 7.99989H13.764Z" fill="black"/>
</svg>
