<svg width="25" height="25" viewBox="0 0 25 25" fill="none" xmlns="http://www.w3.org/2000/svg">
<circle cx="12.5" cy="12.5" r="12.5" fill="white"/>
<path d="M18.834 7H16.3244L14.8757 5.5H10.1257L8.6769 7H6.16732C5.74739 7 5.34466 7.15804 5.04773 7.43934C4.7508 7.72064 4.58398 8.10218 4.58398 8.5V17.5C4.58398 17.8978 4.7508 18.2794 5.04773 18.5607C5.34466 18.842 5.74739 19 6.16732 19H18.834C19.2539 19 19.6566 18.842 19.9536 18.5607C20.2505 18.2794 20.4173 17.8978 20.4173 17.5V8.5C20.4173 8.10218 20.2505 7.72064 19.9536 7.43934C19.6566 7.15804 19.2539 7 18.834 7ZM18.834 17.5H6.16732V8.5H9.37357L10.8223 7H14.179L15.6277 8.5H18.834V17.5ZM12.5007 9.25C11.4508 9.25 10.444 9.64509 9.70169 10.3483C8.95935 11.0516 8.54232 12.0054 8.54232 13C8.54232 13.9946 8.95935 14.9484 9.70169 15.6517C10.444 16.3549 11.4508 16.75 12.5007 16.75C13.5505 16.75 14.5573 16.3549 15.2996 15.6517C16.0419 14.9484 16.459 13.9946 16.459 13C16.459 12.0054 16.0419 11.0516 15.2996 10.3483C14.5573 9.64509 13.5505 9.25 12.5007 9.25ZM12.5007 15.25C11.8708 15.25 11.2667 15.0129 10.8213 14.591C10.3759 14.169 10.1257 13.5967 10.1257 13C10.1257 12.4033 10.3759 11.831 10.8213 11.409C11.2667 10.9871 11.8708 10.75 12.5007 10.75C13.1305 10.75 13.7346 10.9871 14.18 11.409C14.6254 11.831 14.8757 12.4033 14.8757 13C14.8757 13.5967 14.6254 14.169 14.18 14.591C13.7346 15.0129 13.1305 15.25 12.5007 15.25Z" fill="black"/>
</svg>
