<svg width="30" height="30" viewBox="0 0 30 30" fill="none" xmlns="http://www.w3.org/2000/svg">
<g clip-path="url(#clip0_3_251)">
<path d="M21.6667 26.6667H20.2167C19.873 26.4236 19.5841 26.111 19.3688 25.7493C19.1535 25.3876 19.0165 24.9847 18.9667 24.5667V23.4417H11.0333V24.5833C10.9813 24.9984 10.8432 25.3981 10.628 25.7568C10.4128 26.1155 10.1251 26.4254 9.78333 26.6667H8.28333C8.06232 26.6667 7.85036 26.7544 7.69407 26.9107C7.53779 27.067 7.45 27.279 7.45 27.5C7.45 27.721 7.53779 27.933 7.69407 28.0892C7.85036 28.2455 8.06232 28.3333 8.28333 28.3333H21.7167C21.8287 28.3436 21.9415 28.329 22.0473 28.2908C22.1531 28.2525 22.2491 28.1915 22.3286 28.112C22.4082 28.0324 22.4692 27.9364 22.5075 27.8306C22.5457 27.7249 22.5602 27.612 22.55 27.5C22.5502 27.3862 22.5271 27.2736 22.4821 27.1691C22.4372 27.0646 22.3713 26.9704 22.2885 26.8923C22.2058 26.8142 22.1079 26.7539 22.0009 26.7151C21.894 26.6763 21.7802 26.6598 21.6667 26.6667Z" fill="black"/>
<path d="M27.0833 2.5H2.91666C2.58514 2.5 2.2672 2.6317 2.03278 2.86612C1.79836 3.10054 1.66666 3.41848 1.66666 3.75V21.25C1.66666 21.5815 1.79836 21.8995 2.03278 22.1339C2.2672 22.3683 2.58514 22.5 2.91666 22.5H27.0833C27.4149 22.5 27.7328 22.3683 27.9672 22.1339C28.2016 21.8995 28.3333 21.5815 28.3333 21.25V3.75C28.3333 3.41848 28.2016 3.10054 27.9672 2.86612C27.7328 2.6317 27.4149 2.5 27.0833 2.5ZM25.8333 18.1917H4.16666V5.83333H25.8333V18.1917Z" fill="black"/>
</g>
<defs>
<clipPath id="clip0_3_251">
<rect width="30" height="30" fill="white"/>
</clipPath>
</defs>
</svg>
