<svg width="10" height="10" viewBox="0 0 10 10" fill="none" xmlns="http://www.w3.org/2000/svg">
<path d="M3.25 0.833313H6.75C8.08334 0.833313 9.16667 1.91665 9.16667 3.24998V6.74998C9.16667 7.39092 8.91206 8.00561 8.45884 8.45882C8.00563 8.91203 7.39094 9.16665 6.75 9.16665H3.25C1.91667 9.16665 0.833336 8.08331 0.833336 6.74998V3.24998C0.833336 2.60904 1.08795 1.99435 1.54116 1.54114C1.99437 1.08793 2.60906 0.833313 3.25 0.833313ZM3.16667 1.66665C2.76884 1.66665 2.38731 1.82468 2.10601 2.10599C1.8247 2.38729 1.66667 2.76882 1.66667 3.16665V6.83331C1.66667 7.66248 2.3375 8.33331 3.16667 8.33331H6.83334C7.23116 8.33331 7.61269 8.17528 7.894 7.89397C8.1753 7.61267 8.33334 7.23114 8.33334 6.83331V3.16665C8.33334 2.33748 7.6625 1.66665 6.83334 1.66665H3.16667ZM7.1875 2.29165C7.32564 2.29165 7.45811 2.34652 7.55579 2.44419C7.65346 2.54187 7.70834 2.67435 7.70834 2.81248C7.70834 2.95061 7.65346 3.08309 7.55579 3.18076C7.45811 3.27844 7.32564 3.33331 7.1875 3.33331C7.04937 3.33331 6.91689 3.27844 6.81922 3.18076C6.72154 3.08309 6.66667 2.95061 6.66667 2.81248C6.66667 2.67435 6.72154 2.54187 6.81922 2.44419C6.91689 2.34652 7.04937 2.29165 7.1875 2.29165ZM5 2.91665C5.55254 2.91665 6.08244 3.13614 6.47314 3.52684C6.86384 3.91754 7.08334 4.44745 7.08334 4.99998C7.08334 5.55251 6.86384 6.08242 6.47314 6.47312C6.08244 6.86382 5.55254 7.08331 5 7.08331C4.44747 7.08331 3.91756 6.86382 3.52686 6.47312C3.13616 6.08242 2.91667 5.55251 2.91667 4.99998C2.91667 4.44745 3.13616 3.91754 3.52686 3.52684C3.91756 3.13614 4.44747 2.91665 5 2.91665ZM5 3.74998C4.66848 3.74998 4.35054 3.88168 4.11612 4.1161C3.8817 4.35052 3.75 4.66846 3.75 4.99998C3.75 5.3315 3.8817 5.64944 4.11612 5.88386C4.35054 6.11828 4.66848 6.24998 5 6.24998C5.33152 6.24998 5.64947 6.11828 5.88389 5.88386C6.11831 5.64944 6.25 5.3315 6.25 4.99998C6.25 4.66846 6.11831 4.35052 5.88389 4.1161C5.64947 3.88168 5.33152 3.74998 5 3.74998Z" fill="black"/>
</svg>
