<svg width="10" height="10" viewBox="0 0 10 10" fill="none" xmlns="http://www.w3.org/2000/svg">
<path fill-rule="evenodd" clip-rule="evenodd" d="M5.00001 0.833313C4.33697 0.833313 3.70108 1.09671 3.23224 1.56555C2.7634 2.03439 2.50001 2.67027 2.50001 3.33331V4.11456L2.12501 3.83331C2.08123 3.80048 2.03142 3.7766 1.97842 3.76302C1.92541 3.74944 1.87025 3.74643 1.81608 3.75417C1.76191 3.76191 1.7098 3.78024 1.66272 3.80812C1.61563 3.83599 1.5745 3.87287 1.54167 3.91665C1.50884 3.96042 1.48496 4.01023 1.47138 4.06324C1.4578 4.11624 1.45479 4.1714 1.46253 4.22557C1.47027 4.27974 1.4886 4.33185 1.51648 4.37894C1.54435 4.42602 1.58123 4.46715 1.62501 4.49998L2.40251 5.08331C2.21751 5.56998 1.76626 6.07915 1.03584 6.5179C0.987931 6.5473 0.946398 6.58601 0.913694 6.63173C0.88099 6.67745 0.857778 6.72926 0.845427 6.7841C0.833076 6.83894 0.831838 6.8957 0.841785 6.95103C0.851731 7.00635 0.872662 7.05913 0.90334 7.10623C1.36917 7.80498 2.10834 8.33331 2.91667 8.33331C3.66001 8.33331 4.16959 9.16665 5.00001 9.16665C5.83792 9.16665 6.33709 8.33331 7.08334 8.33331C7.89167 8.33331 8.63084 7.80498 9.09667 7.10623C9.12735 7.05913 9.14828 7.00635 9.15823 6.95103C9.16818 6.8957 9.16694 6.83894 9.15459 6.7841C9.14224 6.72926 9.11902 6.67745 9.08632 6.63173C9.05362 6.58601 9.01208 6.5473 8.96417 6.5179C8.23376 6.07915 7.78251 5.56998 7.59751 5.08331L8.37501 4.49998C8.46341 4.43368 8.52186 4.33497 8.53749 4.22557C8.55311 4.11618 8.52464 4.00505 8.45834 3.91665C8.39204 3.82824 8.29333 3.7698 8.18393 3.75417C8.07454 3.73854 7.96341 3.76701 7.87501 3.83331L7.50001 4.11456V3.33331C7.50001 2.67027 7.23662 2.03439 6.76778 1.56555C6.29893 1.09671 5.66305 0.833313 5.00001 0.833313Z" fill="black"/>
</svg>
