<svg width="10" height="10" viewBox="0 0 10 10" fill="none" xmlns="http://www.w3.org/2000/svg">
<path d="M10 1.17647C9.63193 1.38235 9.23518 1.51765 8.82409 1.58235C9.24474 1.27059 9.56979 0.776471 9.72275 0.182353C9.326 0.476471 8.88623 0.682353 8.42256 0.8C8.04493 0.294118 7.51434 0 6.91205 0C5.78872 0 4.87094 1.12941 4.87094 2.52353C4.87094 2.72353 4.89006 2.91765 4.92352 3.1C3.2218 2.99412 1.7065 1.98824 0.697897 0.464706C0.521033 0.835294 0.42065 1.27059 0.42065 1.72941C0.42065 2.60588 0.779159 3.38235 1.33365 3.82353C0.994264 3.82353 0.678776 3.70588 0.40153 3.52941V3.54706C0.40153 4.77059 1.10899 5.79412 2.04589 6.02353C1.74509 6.12483 1.4293 6.13892 1.12333 6.06471C1.25316 6.56616 1.50743 7.00495 1.85039 7.31937C2.19335 7.6338 2.60777 7.80805 3.03537 7.81765C2.31053 8.52379 1.41204 8.90548 0.487572 8.9C0.325048 8.9 0.162524 8.88824 0 8.86471C0.908222 9.58235 1.98853 10 3.14532 10C6.91205 10 8.98184 6.15294 8.98184 2.81765C8.98184 2.70588 8.98184 2.6 8.97706 2.48824C9.37859 2.13529 9.72275 1.68824 10 1.17647Z" fill="black"/>
</svg>
