<svg width="10" height="10" viewBox="0 0 10 10" fill="none" xmlns="http://www.w3.org/2000/svg">
<path d="M7.9375 2.04584C7.55551 1.65997 7.1005 1.35403 6.59902 1.14586C6.09754 0.937685 5.55964 0.831446 5.01667 0.833338C2.74167 0.833338 0.887505 2.6875 0.887505 4.9625C0.887505 5.69167 1.07917 6.4 1.43751 7.025L0.854172 9.16667L3.04167 8.59167C3.64584 8.92084 4.325 9.09584 5.01667 9.09584C7.29167 9.09584 9.14584 7.24167 9.14584 4.96667C9.14584 3.8625 8.71667 2.825 7.9375 2.04584ZM5.01667 8.39584C4.4 8.39584 3.79584 8.22917 3.26667 7.91667L3.14167 7.84167L1.84167 8.18334L2.18751 6.91667L2.10417 6.7875C1.76157 6.24041 1.57965 5.60802 1.57917 4.9625C1.57917 3.07084 3.12084 1.52917 5.0125 1.52917C5.92917 1.52917 6.79167 1.8875 7.43751 2.5375C7.75729 2.85582 8.01071 3.23445 8.18309 3.65143C8.35546 4.06842 8.44335 4.51547 8.44167 4.96667C8.45001 6.85834 6.90834 8.39584 5.01667 8.39584ZM6.9 5.82917C6.79584 5.77917 6.2875 5.52917 6.19584 5.49167C6.1 5.45834 6.03334 5.44167 5.9625 5.54167C5.89167 5.64584 5.69584 5.87917 5.6375 5.94584C5.57917 6.01667 5.51667 6.025 5.4125 5.97084C5.30834 5.92084 4.975 5.80834 4.58334 5.45834C4.275 5.18334 4.07084 4.84584 4.00834 4.74167C3.95 4.6375 4 4.58334 4.05417 4.52917C4.1 4.48334 4.15834 4.40834 4.20834 4.35C4.25834 4.29167 4.27917 4.24584 4.31251 4.17917C4.34584 4.10834 4.32917 4.05 4.30417 4C4.27917 3.95 4.07084 3.44167 3.9875 3.23334C3.90417 3.03334 3.81667 3.05834 3.75417 3.05417H3.55417C3.48334 3.05417 3.37501 3.07917 3.27917 3.18334C3.18751 3.2875 2.92084 3.5375 2.92084 4.04584C2.92084 4.55417 3.29167 5.04584 3.34167 5.1125C3.39167 5.18334 4.07084 6.225 5.10417 6.67084C5.35 6.77917 5.54167 6.84167 5.69167 6.8875C5.9375 6.96667 6.16251 6.95417 6.34167 6.92917C6.54167 6.9 6.95417 6.67917 7.0375 6.4375C7.125 6.19584 7.12501 5.99167 7.09584 5.94584C7.06667 5.9 7.00417 5.87917 6.9 5.82917Z" fill="black"/>
</svg>
